<?xml version="1.0" standalone="no"?>
<!DOCTYPE svg PUBLIC "-//W3C//DTD SVG 20010904//EN"
 "http://www.w3.org/TR/2001/REC-SVG-20010904/DTD/svg10.dtd">
<svg version="1.0" xmlns="http://www.w3.org/2000/svg"
 width="512.000000pt" height="512.000000pt" viewBox="0 0 512.000000 512.000000"
 preserveAspectRatio="xMidYMid meet">

<g transform="translate(0.000000,512.000000) scale(0.100000,-0.100000)"
fill="#da2d0f" stroke="none">
<path d="M1803 4785 c-133 -36 -249 -130 -307 -247 -103 -205 -56 -373 104
-373 94 0 145 50 160 155 9 67 28 100 74 134 27 20 43 21 486 26 443 5 459 6
486 26 53 39 69 71 69 134 0 63 -16 95 -69 134 -27 20 -40 21 -489 23 -373 2
-472 -1 -514 -12z"/>
<path d="M3723 4785 c-133 -36 -249 -130 -307 -247 -103 -205 -56 -373 104
-373 94 0 145 50 160 155 9 67 28 100 74 134 27 20 43 21 486 26 443 5 459 6
486 26 53 39 69 71 69 134 0 63 -16 95 -69 134 -27 20 -40 21 -489 23 -373 2
-472 -1 -514 -12z"/>
<path d="M1215 3986 c-36 -16 -70 -52 -83 -86 -5 -14 -40 -213 -78 -442 l-68
-417 -283 -3 c-266 -3 -283 -4 -309 -24 -15 -11 -37 -33 -48 -48 -21 -27 -21
-30 -21 -1286 0 -1256 0 -1259 21 -1286 11 -15 33 -37 48 -48 l27 -21 2139 0
2139 0 27 21 c15 11 37 33 48 48 21 27 21 30 21 1286 0 1256 0 1259 -21 1286
-11 15 -33 37 -48 48 -26 20 -43 21 -309 24 l-282 3 -72 431 c-76 454 -77 457
-137 502 -27 20 -39 21 -406 21 -367 0 -379 -1 -406 -21 -60 -45 -61 -48 -137
-502 l-72 -432 -345 0 -345 0 -72 432 c-76 454 -77 457 -137 502 -26 20 -41
21 -394 23 -291 2 -373 0 -397 -11z m619 -598 c26 -161 50 -305 53 -320 l6
-28 -293 0 -292 0 5 28 c3 15 27 159 53 320 l49 292 185 0 185 0 49 -292z
m1920 0 c26 -161 50 -305 53 -320 l6 -28 -293 0 -292 0 5 28 c3 15 27 159 53
320 l49 292 185 0 185 0 49 -292z m726 -1708 l0 -1040 -1920 0 -1920 0 0 1040
0 1040 1920 0 1920 0 0 -1040z"/>
<path d="M2172 2386 c-365 -182 -395 -202 -407 -269 -3 -18 -5 -225 -3 -462
l3 -430 24 -33 c19 -27 90 -66 385 -214 328 -164 365 -180 401 -175 24 3 176
73 382 176 286 143 347 177 370 208 l28 36 3 431 c2 237 0 445 -3 463 -12 67
-42 87 -407 269 -273 136 -358 174 -388 174 -30 0 -115 -38 -388 -174z m538
-235 l135 -69 -143 -71 -142 -71 -141 71 -141 70 133 69 c74 37 141 68 149 68
8 1 76 -30 150 -67z m-465 -408 l155 -78 0 -222 0 -223 -160 80 -160 80 0 220
c0 121 2 220 5 220 3 0 75 -35 160 -77z m795 -143 l0 -220 -160 -80 -160 -80
1 222 0 223 157 77 c86 42 158 77 160 77 1 1 2 -98 2 -219z"/>
</g>
</svg>
