<?xml version="1.0" standalone="no"?>
<!DOCTYPE svg PUBLIC "-//W3C//DTD SVG 20010904//EN"
 "http://www.w3.org/TR/2001/REC-SVG-20010904/DTD/svg10.dtd">
<svg version="1.0" xmlns="http://www.w3.org/2000/svg"
 width="512.000000pt" height="512.000000pt" viewBox="0 0 512.000000 512.000000"
 preserveAspectRatio="xMidYMid meet">

<g transform="translate(0.000000,512.000000) scale(0.100000,-0.100000)"
fill="#da2d0f" stroke="none">
<path d="M2315 5109 c-597 -61 -1141 -318 -1563 -739 -1002 -1000 -1002 -2620
0 -3620 406 -405 901 -648 1493 -732 119 -17 512 -16 635 1 579 80 1090 331
1489 732 289 290 495 626 621 1009 80 243 117 448 127 710 26 711 -242 1393
-749 1900 -393 394 -891 643 -1453 726 -122 18 -477 26 -600 13z m1697 -1391
c72 -34 142 -103 175 -175 50 -110 40 -255 -24 -350 -23 -33 -1179 -1219
-1607 -1649 -147 -147 -191 -169 -331 -169 -172 0 -144 -23 -756 592 -598 600
-564 556 -564 723 0 85 3 101 30 153 37 75 117 149 193 178 79 31 185 31 267
-1 56 -21 85 -47 390 -351 182 -180 343 -332 358 -338 36 -14 105 -14 145 0
20 7 252 235 682 672 359 364 668 673 688 686 99 68 244 79 354 29z"/>
</g>
</svg>
