<?xml version="1.0" standalone="no"?>
<!DOCTYPE svg PUBLIC "-//W3C//DTD SVG 20010904//EN"
 "http://www.w3.org/TR/2001/REC-SVG-20010904/DTD/svg10.dtd">
<svg version="1.0" xmlns="http://www.w3.org/2000/svg"
 width="512.000000pt" height="512.000000pt" viewBox="0 0 512.000000 512.000000"
 preserveAspectRatio="xMidYMid meet">

<g transform="translate(0.000000,512.000000) scale(0.100000,-0.100000)"
fill="#da2d0f" stroke="none">
<path d="M2592 5105 c-225 -51 -420 -248 -467 -471 -36 -170 -3 -325 100 -468
l54 -75 -47 -29 c-152 -95 -290 -261 -357 -433 -43 -107 -57 -186 -62 -349 -5
-145 -4 -158 16 -198 14 -28 34 -48 61 -62 38 -20 57 -20 825 -20 752 0 787 1
823 19 23 12 47 36 61 61 23 42 24 47 18 204 -7 186 -26 272 -87 403 -69 147
-185 283 -317 370 -29 20 -53 37 -53 39 0 2 16 25 37 51 291 380 27 948 -451
969 -57 2 -114 -2 -154 -11z m225 -306 c123 -47 197 -155 197 -289 1 -91 -23
-149 -84 -210 -61 -61 -119 -85 -210 -84 -123 0 -223 61 -279 170 -96 186 60
430 276 433 23 1 68 -9 100 -20z m27 -904 c173 -37 326 -156 405 -316 39 -79
70 -191 71 -251 l0 -28 -605 0 -605 0 0 28 c1 57 31 168 67 241 52 106 168
222 275 274 129 64 257 81 392 52z"/>
<path d="M1655 2749 c-148 -22 -338 -98 -453 -183 -53 -39 -244 -203 -344
-295 l-28 -25 -67 25 c-53 18 -87 24 -153 23 -103 -1 -166 -24 -405 -147 -142
-73 -162 -87 -182 -122 -13 -22 -23 -57 -23 -77 0 -30 98 -234 468 -970 l467
-933 45 -22 c24 -13 59 -23 76 -23 21 0 104 36 233 100 159 80 213 113 261
157 74 69 126 168 142 271 l12 72 910 0 c750 0 928 3 1009 15 227 34 427 135
588 296 84 83 812 1052 856 1139 131 255 -3 553 -285 631 -84 24 -140 24 -229
1 -126 -34 -135 -42 -609 -551 l-42 -45 -27 57 c-60 122 -183 219 -313 246
-34 7 -207 11 -483 11 -304 0 -437 3 -452 11 -12 7 -67 46 -122 88 -168 129
-246 171 -397 217 -140 42 -307 54 -453 33z m350 -314 c92 -25 191 -78 285
-150 124 -96 180 -133 241 -158 52 -21 68 -22 519 -27 521 -6 506 -3 548 -78
28 -50 28 -94 0 -144 -42 -74 -31 -72 -515 -78 -416 -5 -433 -6 -459 -26 -50
-37 -66 -68 -66 -124 0 -56 16 -87 66 -124 27 -21 38 -21 534 -21 l507 0 63
27 c35 14 79 37 98 50 20 12 196 194 391 403 195 209 368 388 386 398 43 23
94 21 141 -6 67 -38 92 -110 62 -181 -8 -18 -182 -258 -388 -532 -421 -561
-461 -605 -612 -679 -173 -85 -86 -79 -1211 -83 l-1000 -2 -282 563 -281 563
156 137 c226 198 305 245 472 282 81 18 260 13 345 -10z m-1325 -457 l45 -23
332 -660 c183 -363 335 -675 339 -692 4 -24 0 -45 -17 -80 -22 -45 -32 -52
-141 -108 -64 -33 -119 -57 -121 -55 -9 9 -757 1510 -757 1518 0 12 230 122
255 122 11 0 41 -10 65 -22z"/>
</g>
</svg>
